<?xml version="1.0" encoding="UTF-8"?>
<svg width="1200pt" height="1200pt" version="1.1" viewBox="0 0 1200 1200" xmlns="http://www.w3.org/2000/svg">
 <g>
  <path d="m1017.6 586.73c-36.207-28.098-81.398-43.57-127.24-43.57h-204.14c-53.062 0-103.57 20.023-142.23 56.379l-127.64 120.04c-3.9414 3.6914-9.9805 3.8008-14.031 0.25781l-89.348-77.969-4.5586-17.023c-13.516-50.461-11.578-103.81 5.5703-153.16 1.1172-3.2148 1.6875-6.5938 1.6875-9.9922-0.003906-16.816-13.633-30.449-30.449-30.449h-119.13c-16.816 0-30.449 13.633-30.449 30.449 0 3.4023 0.57031 6.7812 1.6875 9.9922 17.148 49.344 19.086 102.7 5.5703 153.16l-59.117 220.67c-1.5312 5.7148-2.3047 11.605-2.3047 17.52 0 32.055 22.48 59.719 53.859 66.281 29.785 6.2266 60.055 9.3398 90.32 9.3398s60.535-3.1133 90.32-9.3398c18.824-3.9336 34.316-15.551 43.805-31.066 14.996 8.0898 31.875 12.57 49.535 12.57 22.727 0 45.215-7.582 63.305-21.352l80.145-60.961c1.5234 18.367 5.3555 36.18 11.445 53.172 13.152 36.676 18.707 73.289 16.531 108.82l-6.793 113.89c-0.47656 7.7461 2.2969 15.438 7.6172 21.094 5.3203 5.6562 12.82 8.8984 20.582 8.8984h478.65c15.363 0 28.035-12.496 28.254-27.867l4.4453-320.52c1.0742-77.363-34.773-151.86-95.902-199.27zm-147.68 65.531 12.391 26.777-85.477 26.195v-15.535c3.2695-1.5391 6.2148-3.9297 8.3359-7.3594l74.461-120.43h1.7266c0.23828 0.32422 0.35156 0.70703 0.63672 1.0078l44.086 46.133-52.449 31.219c-4.1211 2.4531-5.7227 7.6367-3.7109 11.992zm-174.61-11.992-51.25-30.504 54.383-45.863 73.23 118.44c1.6914 2.7305 3.9336 4.7578 6.4062 6.2891v18.434l-91.449-28.02 12.391-26.777c2.0156-4.3594 0.41406-9.543-3.7109-11.996zm-529.21-190.27h119.12c6.4492 0 11.699 5.2461 11.699 11.699 0 1.3086-0.21875 2.6016-0.64844 3.8398-17.379 50.016-20.027 103.26-8.1406 154.66 0.73438 3.168 1.3281 6.3555 2.1719 9.5078l6.0391 22.547 3.5859 13.375h-65.598c-5.1758 0-9.375 4.1914-9.375 9.375s4.1992 9.375 9.375 9.375h70.621l5.3594 20.008h-169.3l20.008-74.68c14.547-54.297 12.484-111.07-5.9688-164.16-0.42969-1.2383-0.64844-2.5273-0.64844-3.8398 0-6.4531 5.2461-11.699 11.695-11.699zm91.746 301.39c1.3828-0.80078 2.8984-1.3867 4.6133-1.3867h46.875c5.1758 0 9.375 4.1914 9.375 9.375s-4.1992 9.375-9.375 9.375h-46.875c-5.1758 0-9.375-4.1914-9.375-9.375 0-3.4648 1.9648-6.3672 4.7617-7.9883zm23.363 73.613h46.875c5.1758 0 9.375 4.1914 9.375 9.375 0 4.668-3.4648 8.3594-7.9258 9.082-0.49219 0.078125-0.93359 0.29297-1.4492 0.29297h-46.875c-5.1758 0-9.375-4.1914-9.375-9.375s4.1992-9.375 9.375-9.375zm314.03 287.65c-1.8125-1.9336-2.7227-4.4492-2.5625-7.1133l6.793-113.89c2.3398-38.078-3.5781-77.195-17.594-116.29-1.4336-3.9922-2.6094-8.082-3.7656-12.176-13.297-87.039-1.8633-132.57-1.6406-133.44 1.3398-4.9883-1.6172-10.125-6.6094-11.48-5.0078-1.3555-10.148 1.6211-11.496 6.6094-0.39844 1.4727-7.3125 28.164-5.0117 79.652l-92.074 70.035c-14.852 11.297-33.297 17.523-51.953 17.523-15.082 0-29.465-3.9844-42.133-11.148 1.582-5.7461 2.6523-11.691 2.6523-17.887 0-5.918-0.77344-11.809-2.3047-17.52l-45.855-171.17 68.32 59.621c11.352 9.9062 28.211 9.5859 39.199-0.73438l127.64-120.04c31.406-29.547 71.441-47.125 114.03-50.566l-48.953 41.281c-2.3203 1.9609-3.5469 4.918-3.3008 7.9375s1.9414 5.7305 4.5469 7.2891l55.301 32.922-13.359 28.859c-1.1367 2.4531-1.1523 5.2812-0.050781 7.7656 1.1016 2.4727 3.2227 4.3398 5.8125 5.1367l105.62 32.363c0.5 0.44922 1.0234 0.84375 1.6016 1.1797v388.27h-175.93c-2.6445 0-5.1016-1.0625-6.918-2.9961zm495.07-6.3906c-0.074218 5.1719-4.3359 9.3828-9.5039 9.3828h-74.598l-5.4336-104.89c-2.2305-42.984 2.8828-87.801 15.191-133.19 10.602-39.121 14.984-89.766 13.02-150.55-0.16406-5.1719-4.5117-9.6055-9.6719-9.0625-5.1758 0.16406-9.2344 4.4961-9.0664 9.668 1.9062 58.922-2.2617 107.72-12.379 145.04-12.828 47.312-18.148 94.098-15.816 139.07l5.3828 103.92h-190.6v-390.8l101.25-31.023c2.5898-0.79688 4.7109-2.6641 5.8125-5.1367 1.1016-2.4805 1.0859-5.3086-0.050781-7.7656l-13.359-28.859 55.301-32.922c2.4531-1.4648 4.1055-3.9648 4.4922-6.793 0.39063-2.8281-0.53516-5.6758-2.5078-7.7344l-39.957-41.812c35.594 3.3438 69.969 16.762 98.297 38.746 56.508 43.828 89.645 112.68 88.641 184.2z"/>
  <path d="m871.88 768.75c0 10.355-8.3945 18.75-18.75 18.75s-18.75-8.3945-18.75-18.75 8.3945-18.75 18.75-18.75 18.75 8.3945 18.75 18.75"/>
  <path d="m871.88 862.5c0 10.355-8.3945 18.75-18.75 18.75s-18.75-8.3945-18.75-18.75 8.3945-18.75 18.75-18.75 18.75 8.3945 18.75 18.75"/>
  <path d="m871.88 956.25c0 10.355-8.3945 18.75-18.75 18.75s-18.75-8.3945-18.75-18.75 8.3945-18.75 18.75-18.75 18.75 8.3945 18.75 18.75"/>
  <path d="m871.88 1050c0 10.355-8.3945 18.75-18.75 18.75s-18.75-8.3945-18.75-18.75 8.3945-18.75 18.75-18.75 18.75 8.3945 18.75 18.75"/>
  <path d="m309.38 346.88c20.676 0 37.5-16.816 37.5-37.5s-16.824-37.5-37.5-37.5-37.5 16.816-37.5 37.5 16.824 37.5 37.5 37.5zm0-56.25c10.34 0 18.75 8.4141 18.75 18.75s-8.4102 18.75-18.75 18.75-18.75-8.4141-18.75-18.75 8.4102-18.75 18.75-18.75z"/>
  <path d="m215.62 253.12c20.676 0 37.5-16.816 37.5-37.5s-16.824-37.5-37.5-37.5-37.5 16.816-37.5 37.5 16.824 37.5 37.5 37.5zm0-56.25c10.34 0 18.75 8.4141 18.75 18.75s-8.4102 18.75-18.75 18.75-18.75-8.4141-18.75-18.75 8.4102-18.75 18.75-18.75z"/>
  <path d="m178.12 384.38c20.676 0 37.5-16.816 37.5-37.5s-16.824-37.5-37.5-37.5-37.5 16.816-37.5 37.5 16.824 37.5 37.5 37.5zm0-56.25c10.34 0 18.75 8.4141 18.75 18.75s-8.4102 18.75-18.75 18.75-18.75-8.4141-18.75-18.75 8.4102-18.75 18.75-18.75z"/>
  <path d="m712.5 768.75h-75c-5.1758 0-9.375 4.1914-9.375 9.375s4.1992 9.375 9.375 9.375h75c5.1758 0 9.375-4.1914 9.375-9.375s-4.1992-9.375-9.375-9.375z"/>
  <path d="m611.74 518.15c31.582 0 60.43-11.543 82.703-30.562 26.684 17.684 58.648 28.035 93.055 28.035 34.949 0 67.418-10.625 94.352-28.82 22.391 19.473 51.562 31.348 83.57 31.348 70.43 0 127.52-57.094 127.52-127.52 0-44.422-22.738-83.496-57.184-106.33 6.6484-15.453 10.363-32.461 10.363-50.352 0-70.43-57.094-127.52-127.52-127.52-5.7773 0-11.426 0.51953-17 1.2617-23.234-31.344-60.387-51.75-102.4-51.75-42.512 0-80.059 20.883-103.23 52.863-7.8711-1.5195-15.98-2.375-24.293-2.375-70.43 0-127.52 57.094-127.52 127.52 0 15.484 2.8984 30.262 7.9531 43.992-40.367 21.406-67.891 63.812-67.891 112.69 0 70.43 57.094 127.52 127.52 127.52zm175.76-21.277c-29.148 0-56.293-8.4922-79.344-22.938-23.871-14.961-43.188-36.406-55.555-61.902 1.5039 0.24219 3.0156 0.46484 4.5859 0.46484h90.848c7.8359 0 15.449-3.2305 20.887-8.8516l15.898-16.434c1.9609-2.0234 4.5898-3.1406 7.4102-3.1406h0.007812c2.8242 0.007812 5.457 1.125 7.4102 3.1484l15.789 16.387c5.457 5.6484 13.082 8.8906 20.926 8.8906h85.816c-12.137 24.801-30.844 45.766-53.938 60.59-23.344 14.98-51.008 23.785-80.742 23.785zm150-203.34v89.902c0 4.6484-3.1523 8.4336-7.3867 9.7188-0.94531 0.28516-1.8906 0.58984-2.9258 0.58984h-90.824c-2.7812 0-5.4922-1.1523-7.4258-3.1484l-15.785-16.387c-5.5156-5.7227-12.938-8.8789-20.891-8.8906h-0.027344c-7.9453 0-15.363 3.1406-20.887 8.8516l-15.902 16.434c-1.9297 1.9961-4.625 3.1406-7.4102 3.1406h-90.848c-5.6836 0-10.312-4.625-10.312-10.309v-91.883c0-3.7852 2.1484-6.9609 5.1992-8.7539 1.5312-0.89844 3.2148-1.5547 5.1133-1.5547h270c2.5547 0 4.8242 1.0312 6.6289 2.5781 2.2109 1.8906 3.6875 4.6016 3.6875 7.7305z"/>
  <path d="m713.53 314.04c-0.34766 0.26172-0.75781 0.39844-1.0742 0.71484l-32.887 32.887c-3.6641 3.6641-3.6641 9.5938 0 13.258 0.078126 0.078125 0.17969 0.097657 0.25781 0.17188 1.8008 1.6797 4.0703 2.5742 6.3711 2.5742 2.3984 0 4.7969-0.91406 6.6289-2.7461l32.883-32.883c3.6641-3.6641 3.6641-9.5938 0-13.258-3.3438-3.3477-8.5078-3.4844-12.18-0.71875z"/>
  <path d="m778.79 306.58c-0.46484-0.46484-1.0469-0.69922-1.5742-1.0469-3.5508-2.3281-8.2266-2.1172-11.43 0.875-0.078125 0.070313-0.17969 0.09375-0.25391 0.16797l-32.887 32.887c-1.2656 1.2656-1.9336 2.832-2.3242 4.4531-0.26562 1.0938-0.33984 2.1797-0.20703 3.293 0.24609 2.0078 0.98828 3.9688 2.5273 5.5078 0.32031 0.32031 0.73047 0.45312 1.082 0.71875 1.6602 1.2461 3.5664 2.0273 5.5469 2.0273 2.3984 0 4.7969-0.91406 6.6289-2.7461l32.887-32.887c2.8008-2.8008 3.4219-6.9141 1.9375-10.34-0.45312-1.043-1.0742-2.0469-1.9336-2.9102z"/>
  <path d="m187.5 496.88h84.375c5.1758 0 9.375-4.1914 9.375-9.375s-4.1992-9.375-9.375-9.375h-84.375c-5.1758 0-9.375 4.1914-9.375 9.375s4.1992 9.375 9.375 9.375z"/>
 </g>
</svg>
