<?xml version="1.0" encoding="UTF-8"?>
<svg width="700pt" height="700pt" version="1.1" viewBox="0 0 700 700" xmlns="http://www.w3.org/2000/svg" xmlns:xlink="http://www.w3.org/1999/xlink">
 <defs>
  <symbol id="z" overflow="visible">
   <path d="m3.6562-0.21875c-0.1875 0.09375-0.38672 0.16797-0.59375 0.21875-0.19922 0.050781-0.40625 0.078125-0.625 0.078125-0.66797 0-1.1992-0.17969-1.5938-0.54688-0.38672-0.375-0.57812-0.87891-0.57812-1.5156 0-0.64453 0.19141-1.1484 0.57812-1.5156 0.39453-0.375 0.92578-0.5625 1.5938-0.5625 0.21875 0 0.42578 0.027344 0.625 0.078125 0.20703 0.054687 0.40625 0.125 0.59375 0.21875v0.82812c-0.1875-0.125-0.375-0.21875-0.5625-0.28125-0.17969-0.0625-0.37109-0.09375-0.57812-0.09375-0.36719 0-0.65625 0.12109-0.875 0.35938-0.21094 0.23047-0.3125 0.55469-0.3125 0.96875 0 0.40625 0.10156 0.73047 0.3125 0.96875 0.21875 0.23047 0.50781 0.34375 0.875 0.34375 0.20703 0 0.39844-0.023437 0.57812-0.078125 0.1875-0.0625 0.375-0.16016 0.5625-0.29688z"/>
  </symbol>
  <symbol id="c" overflow="visible">
   <path d="m2.6875-2.1719c-0.085938-0.039063-0.16797-0.070313-0.25-0.09375-0.085938-0.019531-0.16797-0.03125-0.25-0.03125-0.25 0-0.44531 0.085937-0.57812 0.25-0.125 0.15625-0.1875 0.38281-0.1875 0.67188v1.375h-0.96875v-2.9844h0.96875v0.48438c0.11328-0.19531 0.25-0.33594 0.40625-0.42188 0.16406-0.09375 0.35938-0.14062 0.57812-0.14062h0.10938c0.039063 0 0.09375 0.007812 0.15625 0.015625z"/>
  </symbol>
  <symbol id="b" overflow="visible">
   <path d="m3.4375-1.5v0.26562h-2.2344c0.03125 0.23047 0.11328 0.40234 0.25 0.51562 0.13281 0.10547 0.32812 0.15625 0.57812 0.15625 0.20703 0 0.41406-0.023438 0.625-0.078125 0.20703-0.0625 0.42188-0.15625 0.64062-0.28125v0.73438c-0.21875 0.09375-0.44531 0.16406-0.67188 0.20312-0.23047 0.039062-0.45312 0.0625-0.67188 0.0625-0.54297 0-0.96484-0.13281-1.2656-0.40625-0.30469-0.28125-0.45312-0.67188-0.45312-1.1719 0-0.47656 0.14453-0.85938 0.4375-1.1406 0.30078-0.28125 0.70703-0.42188 1.2188-0.42188 0.46875 0 0.84375 0.14062 1.125 0.42188s0.42188 0.66406 0.42188 1.1406zm-0.96875-0.32812c0-0.17578-0.058594-0.31641-0.17188-0.42188-0.10547-0.11328-0.24219-0.17188-0.40625-0.17188-0.1875 0-0.33984 0.054687-0.45312 0.15625-0.11719 0.10547-0.1875 0.25-0.21875 0.4375z"/>
  </symbol>
  <symbol id="d" overflow="visible">
   <path d="m1.7969-1.3438c-0.19922 0-0.35156 0.039062-0.45312 0.10938-0.09375 0.0625-0.14062 0.16406-0.14062 0.29688 0 0.11719 0.035156 0.21094 0.10938 0.28125 0.082031 0.0625 0.19531 0.09375 0.34375 0.09375 0.17578 0 0.32812-0.0625 0.45312-0.1875s0.1875-0.28516 0.1875-0.48438v-0.10938zm1.4688-0.35938v1.7031h-0.96875v-0.4375c-0.125 0.17969-0.27344 0.30859-0.4375 0.39062-0.15625 0.082031-0.35156 0.125-0.57812 0.125-0.3125 0-0.57031-0.085938-0.76562-0.26562-0.1875-0.1875-0.28125-0.42188-0.28125-0.70312 0-0.35156 0.11719-0.61328 0.35938-0.78125 0.23828-0.16406 0.61719-0.25 1.1406-0.25h0.5625v-0.0625c0-0.15625-0.0625-0.26562-0.1875-0.32812-0.11719-0.070312-0.29688-0.10938-0.54688-0.10938-0.21094 0-0.40234 0.023437-0.57812 0.0625-0.17969 0.042969-0.33984 0.10156-0.48438 0.17188v-0.71875c0.19531-0.050781 0.39844-0.085938 0.60938-0.10938 0.20703-0.03125 0.41406-0.046875 0.625-0.046875 0.53906 0 0.92969 0.10938 1.1719 0.32812 0.23828 0.21094 0.35938 0.55469 0.35938 1.0312z"/>
  </symbol>
  <symbol id="a" overflow="visible">
   <path d="m1.5-3.8438v0.85938h0.98438v0.67188h-0.98438v1.2812c0 0.13672 0.023438 0.23047 0.078125 0.28125 0.0625 0.042969 0.17578 0.0625 0.34375 0.0625h0.48438v0.6875h-0.8125c-0.38672 0-0.65625-0.078125-0.8125-0.23438s-0.23438-0.42188-0.23438-0.79688v-1.2812h-0.46875v-0.67188h0.46875v-0.85938z"/>
  </symbol>
  <symbol id="n" overflow="visible">
   <path d="m2.5-2.5469v-1.6094h0.95312v4.1562h-0.95312v-0.4375c-0.13672 0.17969-0.28125 0.30859-0.4375 0.39062-0.15625 0.082031-0.33984 0.125-0.54688 0.125-0.375 0-0.68359-0.14453-0.92188-0.4375-0.23047-0.28906-0.34375-0.67188-0.34375-1.1406 0-0.45703 0.11328-0.83203 0.34375-1.125 0.23828-0.28906 0.54688-0.4375 0.92188-0.4375 0.19531 0 0.375 0.042969 0.53125 0.125 0.16406 0.085938 0.31641 0.21484 0.45312 0.39062zm-0.64062 1.9375c0.20703 0 0.36328-0.070313 0.46875-0.21875 0.11328-0.15625 0.17188-0.37891 0.17188-0.67188 0-0.28125-0.058594-0.49219-0.17188-0.64062-0.10547-0.15625-0.26172-0.23438-0.46875-0.23438-0.19922 0-0.35547 0.078125-0.46875 0.23438-0.10547 0.14844-0.15625 0.35938-0.15625 0.64062 0 0.29297 0.050781 0.51562 0.15625 0.67188 0.11328 0.14844 0.26953 0.21875 0.46875 0.21875z"/>
  </symbol>
  <symbol id="m" overflow="visible">
   <path d="m2.0469-0.60938c0.20703 0 0.36328-0.070313 0.46875-0.21875 0.11328-0.15625 0.17188-0.37891 0.17188-0.67188 0-0.28125-0.058594-0.49219-0.17188-0.64062-0.10547-0.15625-0.26172-0.23438-0.46875-0.23438-0.19922 0-0.35547 0.078125-0.46875 0.23438-0.10547 0.14844-0.15625 0.35938-0.15625 0.64062 0 0.29297 0.050781 0.51562 0.15625 0.67188 0.11328 0.14844 0.26953 0.21875 0.46875 0.21875zm-0.625-1.9375c0.125-0.17578 0.26562-0.30469 0.42188-0.39062 0.16406-0.082031 0.35156-0.125 0.5625-0.125 0.36328 0 0.66406 0.14844 0.90625 0.4375 0.23828 0.29297 0.35938 0.66797 0.35938 1.125 0 0.46875-0.12109 0.85156-0.35938 1.1406-0.24219 0.29297-0.54297 0.4375-0.90625 0.4375-0.21094 0-0.39844-0.042969-0.5625-0.125-0.15625-0.082031-0.29688-0.21094-0.42188-0.39062v0.4375h-0.96875v-4.1562h0.96875z"/>
  </symbol>
  <symbol id="l" overflow="visible">
   <path d="m0.0625-2.9844h0.95312l0.8125 2.0156 0.6875-2.0156h0.95312l-1.2656 3.2656c-0.125 0.33203-0.27344 0.56641-0.4375 0.70312-0.16797 0.13281-0.39062 0.20312-0.67188 0.20312h-0.54688v-0.64062h0.29688c0.16406 0 0.28516-0.027344 0.35938-0.078125 0.070313-0.054688 0.12891-0.14062 0.17188-0.26562l0.03125-0.09375z"/>
  </symbol>
  <symbol id="k" overflow="visible">
   <path d="m3.2812-3.8594v0.84375c-0.21875-0.10156-0.43359-0.17578-0.64062-0.21875-0.21094-0.050781-0.40625-0.078125-0.59375-0.078125-0.25 0-0.43359 0.039062-0.54688 0.10938-0.11719 0.0625-0.17188 0.16797-0.17188 0.3125 0 0.10547 0.035156 0.1875 0.10938 0.25 0.082031 0.054687 0.22656 0.10156 0.4375 0.14062l0.4375 0.09375c0.44531 0.09375 0.75781 0.23047 0.9375 0.40625 0.1875 0.17969 0.28125 0.4375 0.28125 0.78125 0 0.4375-0.13281 0.76562-0.39062 0.98438-0.26172 0.21094-0.65625 0.3125-1.1875 0.3125-0.25 0-0.50781-0.027344-0.76562-0.078125-0.25-0.039062-0.50781-0.10938-0.76562-0.20312v-0.875c0.25781 0.13672 0.50391 0.24219 0.73438 0.3125 0.23828 0.0625 0.47266 0.09375 0.70312 0.09375 0.21875 0 0.38281-0.035156 0.5-0.10938 0.125-0.070312 0.1875-0.17578 0.1875-0.3125 0-0.125-0.042969-0.21875-0.125-0.28125-0.085937-0.070312-0.24609-0.13281-0.48438-0.1875l-0.39062-0.09375c-0.40625-0.082031-0.70312-0.21875-0.89062-0.40625-0.17969-0.1875-0.26562-0.44141-0.26562-0.76562 0-0.39453 0.125-0.69531 0.375-0.90625 0.25781-0.21875 0.62891-0.32812 1.1094-0.32812 0.22656 0 0.45703 0.023438 0.6875 0.0625 0.22656 0.03125 0.46875 0.078125 0.71875 0.14062z"/>
  </symbol>
  <symbol id="y" overflow="visible">
   <path d="m0.5-3.9844h1.0312v2.3906c0 0.32422 0.050781 0.55859 0.15625 0.70312 0.11328 0.14844 0.28906 0.21875 0.53125 0.21875 0.25 0 0.42578-0.070313 0.53125-0.21875 0.10156-0.14453 0.15625-0.37891 0.15625-0.70312v-2.3906h1.0312v2.3906c0 0.5625-0.14062 0.98438-0.42188 1.2656-0.28125 0.27344-0.71484 0.40625-1.2969 0.40625-0.58594 0-1.0156-0.13281-1.2969-0.40625-0.28125-0.28125-0.42188-0.70312-0.42188-1.2656z"/>
  </symbol>
  <symbol id="j" overflow="visible">
   <path d="m1.4219-0.4375v1.5781h-0.96875v-4.125h0.96875v0.4375c0.125-0.17578 0.26562-0.30469 0.42188-0.39062 0.16406-0.082031 0.35156-0.125 0.5625-0.125 0.36328 0 0.66406 0.14844 0.90625 0.4375 0.23828 0.29297 0.35938 0.66797 0.35938 1.125 0 0.46875-0.12109 0.85156-0.35938 1.1406-0.24219 0.29297-0.54297 0.4375-0.90625 0.4375-0.21094 0-0.39844-0.042969-0.5625-0.125-0.15625-0.082031-0.29688-0.21094-0.42188-0.39062zm0.625-1.9375c-0.19922 0-0.35547 0.078125-0.46875 0.23438-0.10547 0.14844-0.15625 0.35938-0.15625 0.64062 0 0.29297 0.050781 0.51562 0.15625 0.67188 0.11328 0.14844 0.26953 0.21875 0.46875 0.21875 0.20703 0 0.36328-0.070313 0.46875-0.21875 0.11328-0.15625 0.17188-0.37891 0.17188-0.67188 0-0.28125-0.058594-0.49219-0.17188-0.64062-0.10547-0.15625-0.26172-0.23438-0.46875-0.23438z"/>
  </symbol>
  <symbol id="x" overflow="visible">
   <path d="m4.0781-0.29688c-0.25 0.125-0.51562 0.21875-0.79688 0.28125-0.27344 0.0625-0.55469 0.09375-0.84375 0.09375-0.66797 0-1.1992-0.17969-1.5938-0.54688-0.38672-0.375-0.57812-0.87891-0.57812-1.5156 0-0.64453 0.19531-1.1484 0.59375-1.5156 0.39453-0.375 0.9375-0.5625 1.625-0.5625 0.26953 0 0.52344 0.027344 0.76562 0.078125 0.23828 0.054687 0.46875 0.125 0.6875 0.21875v0.82812c-0.21875-0.125-0.4375-0.21875-0.65625-0.28125s-0.44531-0.09375-0.67188-0.09375c-0.40625 0-0.72656 0.11719-0.95312 0.34375-0.21875 0.23047-0.32812 0.55859-0.32812 0.98438 0 0.41797 0.10156 0.74219 0.3125 0.96875 0.21875 0.23047 0.52344 0.34375 0.92188 0.34375 0.10156 0 0.20312-0.003906 0.29688-0.015625 0.09375-0.007812 0.17578-0.03125 0.25-0.0625v-0.78125h-0.625v-0.6875h1.5938z"/>
  </symbol>
  <symbol id="i" overflow="visible">
   <path d="m3.4688-1.8281v1.8281h-0.96875v-1.3906c0-0.25781-0.007812-0.4375-0.015625-0.53125-0.011719-0.10156-0.03125-0.17578-0.0625-0.21875-0.03125-0.0625-0.085937-0.10938-0.15625-0.14062-0.0625-0.039062-0.13281-0.0625-0.20312-0.0625-0.21094 0-0.37109 0.078125-0.48438 0.23438-0.10547 0.15625-0.15625 0.37109-0.15625 0.64062v1.4688h-0.96875v-4.1562h0.96875v1.6094c0.13281-0.17578 0.28516-0.30469 0.45312-0.39062 0.16406-0.082031 0.34375-0.125 0.53125-0.125 0.34375 0 0.60156 0.10938 0.78125 0.32812 0.1875 0.21094 0.28125 0.51172 0.28125 0.90625z"/>
  </symbol>
  <symbol id="h" overflow="visible">
   <path d="m0.45312-2.9844h0.96875v2.9844h-0.96875zm0-1.1719h0.96875v0.78125h-0.96875z"/>
  </symbol>
  <symbol id="g" overflow="visible">
   <path d="m2.875-2.8906v0.76562c-0.125-0.082031-0.25781-0.14453-0.39062-0.1875-0.13672-0.039062-0.27344-0.0625-0.40625-0.0625-0.27344 0-0.48047 0.078125-0.625 0.23438-0.14844 0.15625-0.21875 0.37109-0.21875 0.64062 0 0.28125 0.070313 0.5 0.21875 0.65625 0.14453 0.15625 0.35156 0.23438 0.625 0.23438 0.14453 0 0.28516-0.019531 0.42188-0.0625 0.13281-0.039063 0.25781-0.10938 0.375-0.20312v0.78125c-0.14844 0.0625-0.29688 0.10156-0.45312 0.125-0.15625 0.03125-0.3125 0.046875-0.46875 0.046875-0.54297 0-0.96484-0.13281-1.2656-0.40625-0.30469-0.28125-0.45312-0.67188-0.45312-1.1719 0-0.48828 0.14844-0.86719 0.45312-1.1406 0.30078-0.28125 0.72266-0.42188 1.2656-0.42188 0.15625 0 0.3125 0.015625 0.46875 0.046875 0.15625 0.023437 0.30469 0.0625 0.45312 0.125z"/>
  </symbol>
  <symbol id="w" overflow="visible">
   <path d="m1.5312-3.2031v2.4219h0.375c0.41406 0 0.73438-0.10156 0.95312-0.3125 0.21875-0.20703 0.32812-0.50781 0.32812-0.90625 0-0.39453-0.10938-0.69141-0.32812-0.89062-0.21875-0.20703-0.53906-0.3125-0.95312-0.3125zm-1.0312-0.78125h1.0938c0.60156 0 1.0508 0.042969 1.3438 0.125 0.30078 0.085937 0.55469 0.23047 0.76562 0.4375 0.1875 0.1875 0.32031 0.40234 0.40625 0.64062 0.09375 0.23047 0.14062 0.49219 0.14062 0.78125 0 0.30469-0.046875 0.57422-0.14062 0.8125-0.085937 0.23047-0.21875 0.4375-0.40625 0.625-0.21875 0.19922-0.48047 0.34375-0.78125 0.4375-0.29297 0.085938-0.73438 0.125-1.3281 0.125h-1.0938z"/>
  </symbol>
  <symbol id="v" overflow="visible">
   <path d="m2.7969-2.8906v0.71875c-0.21094-0.082031-0.40625-0.14453-0.59375-0.1875-0.1875-0.039063-0.37109-0.0625-0.54688-0.0625-0.17969 0-0.3125 0.023437-0.40625 0.0625-0.085938 0.042969-0.125 0.10938-0.125 0.20312 0 0.085938 0.03125 0.14844 0.09375 0.1875 0.070312 0.042969 0.19531 0.074219 0.375 0.09375l0.15625 0.015625c0.48828 0.0625 0.81641 0.16797 0.98438 0.3125 0.17578 0.13672 0.26562 0.35938 0.26562 0.67188s-0.12109 0.55469-0.35938 0.71875c-0.23047 0.15625-0.57812 0.23438-1.0469 0.23438-0.19922 0-0.40625-0.015625-0.625-0.046875-0.21094-0.03125-0.42188-0.078125-0.64062-0.14062v-0.71875c0.1875 0.085937 0.37891 0.15234 0.57812 0.20312 0.20703 0.042969 0.41406 0.0625 0.625 0.0625 0.1875 0 0.32812-0.023438 0.42188-0.078125 0.09375-0.050781 0.14062-0.125 0.14062-0.21875s-0.039062-0.16016-0.10938-0.20312c-0.0625-0.039062-0.1875-0.070312-0.375-0.09375l-0.17188-0.015625c-0.42969-0.050781-0.73047-0.14844-0.90625-0.29688-0.16797-0.14453-0.25-0.36328-0.25-0.65625 0-0.32031 0.10938-0.55469 0.32812-0.70312 0.21875-0.15625 0.55078-0.23438 1-0.23438 0.17578 0 0.35938 0.015625 0.54688 0.046875 0.19531 0.023437 0.41016 0.0625 0.64062 0.125z"/>
  </symbol>
  <symbol id="u" overflow="visible">
   <path d="m2.5-0.5c-0.13672 0.16797-0.28125 0.29297-0.4375 0.375-0.15625 0.085938-0.33984 0.125-0.54688 0.125-0.36719 0-0.66797-0.14062-0.90625-0.42188-0.24219-0.28906-0.35938-0.66016-0.35938-1.1094 0-0.44531 0.11719-0.8125 0.35938-1.0938 0.23828-0.28906 0.53906-0.4375 0.90625-0.4375 0.20703 0 0.39062 0.042969 0.54688 0.125 0.15625 0.085938 0.30078 0.21484 0.4375 0.39062v-0.4375h0.95312v2.6875c0 0.47656-0.15234 0.84375-0.45312 1.0938-0.30469 0.25781-0.74609 0.39062-1.3281 0.39062-0.17969 0-0.35547-0.015625-0.53125-0.046875-0.17969-0.03125-0.35547-0.078125-0.53125-0.14062v-0.73438c0.16406 0.09375 0.32812 0.16016 0.48438 0.20312 0.16406 0.050781 0.33203 0.078125 0.5 0.078125 0.3125 0 0.53906-0.070313 0.6875-0.20312 0.14453-0.13672 0.21875-0.34766 0.21875-0.64062zm-0.64062-1.875c-0.19922 0-0.35547 0.074219-0.46875 0.21875-0.10547 0.14844-0.15625 0.35547-0.15625 0.625 0 0.27344 0.050781 0.48047 0.15625 0.625 0.11328 0.14844 0.26953 0.21875 0.46875 0.21875 0.19531 0 0.35156-0.070312 0.46875-0.21875 0.11328-0.14453 0.17188-0.35156 0.17188-0.625 0-0.26953-0.058594-0.47656-0.17188-0.625-0.11719-0.14453-0.27344-0.21875-0.46875-0.21875z"/>
  </symbol>
  <symbol id="f" overflow="visible">
   <path d="m3.4688-1.8281v1.8281h-0.96875v-1.3906c0-0.25781-0.007812-0.4375-0.015625-0.53125-0.011719-0.10156-0.03125-0.17578-0.0625-0.21875-0.03125-0.0625-0.085937-0.10938-0.15625-0.14062-0.0625-0.039062-0.13281-0.0625-0.20312-0.0625-0.21094 0-0.37109 0.078125-0.48438 0.23438-0.10547 0.15625-0.15625 0.37109-0.15625 0.64062v1.4688h-0.96875v-2.9844h0.96875v0.4375c0.13281-0.17578 0.28516-0.30469 0.45312-0.39062 0.16406-0.082031 0.34375-0.125 0.53125-0.125 0.34375 0 0.60156 0.10938 0.78125 0.32812 0.1875 0.21094 0.28125 0.51172 0.28125 0.90625z"/>
  </symbol>
  <symbol id="t" overflow="visible">
   <path d="m2.4219-4.1562v0.625h-0.51562c-0.13672 0-0.23438 0.027344-0.29688 0.078125-0.054687 0.054687-0.078125 0.13672-0.078125 0.25v0.21875h0.82812v0.67188h-0.82812v2.3125h-0.95312v-2.3125h-0.46875v-0.67188h0.46875v-0.21875c0-0.32031 0.085937-0.5625 0.26562-0.71875 0.1875-0.15625 0.47266-0.23438 0.85938-0.23438z"/>
  </symbol>
  <symbol id="e" overflow="visible">
   <path d="m1.875-2.375c-0.21094 0-0.37109 0.078125-0.48438 0.23438-0.10547 0.14844-0.15625 0.35938-0.15625 0.64062 0 0.29297 0.050781 0.51562 0.15625 0.67188 0.11328 0.14844 0.27344 0.21875 0.48438 0.21875 0.20703 0 0.36719-0.070313 0.48438-0.21875 0.11328-0.15625 0.17188-0.37891 0.17188-0.67188 0-0.28125-0.058594-0.49219-0.17188-0.64062-0.11719-0.15625-0.27734-0.23438-0.48438-0.23438zm0-0.6875c0.51953 0 0.92188 0.14062 1.2031 0.42188 0.28906 0.27344 0.4375 0.65234 0.4375 1.1406 0 0.5-0.14844 0.89062-0.4375 1.1719-0.28125 0.27344-0.68359 0.40625-1.2031 0.40625-0.51172 0-0.91406-0.13281-1.2031-0.40625-0.29297-0.28125-0.4375-0.67188-0.4375-1.1719 0-0.48828 0.14453-0.86719 0.4375-1.1406 0.28906-0.28125 0.69141-0.42188 1.2031-0.42188z"/>
  </symbol>
  <symbol id="s" overflow="visible">
   <path d="m3.2344-2.5c0.11328-0.17578 0.25391-0.3125 0.42188-0.40625 0.16406-0.10156 0.35156-0.15625 0.5625-0.15625 0.33203 0 0.58594 0.10938 0.76562 0.32812 0.1875 0.21094 0.28125 0.51172 0.28125 0.90625v1.8281h-0.96875v-1.5625c0.007813-0.019531 0.015625-0.039062 0.015625-0.0625v-0.10938c0-0.21875-0.03125-0.375-0.09375-0.46875s-0.16406-0.14062-0.29688-0.14062c-0.1875 0-0.33594 0.078125-0.4375 0.23438-0.09375 0.14844-0.14062 0.35938-0.14062 0.64062v1.4688h-0.96875v-1.5625c0-0.33203-0.03125-0.54688-0.09375-0.64062-0.054688-0.09375-0.15234-0.14062-0.29688-0.14062-0.17969 0-0.32031 0.078125-0.42188 0.23438-0.09375 0.14844-0.14062 0.35938-0.14062 0.64062v1.4688h-0.96875v-2.9844h0.96875v0.4375c0.11328-0.17578 0.24219-0.30469 0.39062-0.39062 0.15625-0.082031 0.32812-0.125 0.51562-0.125 0.20703 0 0.39062 0.054688 0.54688 0.15625 0.15625 0.09375 0.27344 0.23047 0.35938 0.40625z"/>
  </symbol>
  <symbol id="r" overflow="visible">
   <path d="m0.5-3.9844h1.1562l1.4375 2.7344v-2.7344h0.98438v3.9844h-1.1562l-1.4375-2.7344v2.7344h-0.98438z"/>
  </symbol>
  <symbol id="q" overflow="visible">
   <path d="m0.42188-1.1719v-1.8125h0.96875v0.29688 0.60938 0.48438c0 0.24219 0.003906 0.41797 0.015625 0.53125 0.007812 0.10547 0.03125 0.17969 0.0625 0.21875 0.039062 0.0625 0.09375 0.11719 0.15625 0.15625 0.0625 0.03125 0.13281 0.046875 0.21875 0.046875 0.19531 0 0.35156-0.078125 0.46875-0.23438 0.11328-0.15625 0.17188-0.36719 0.17188-0.64062v-1.4688h0.95312v2.9844h-0.95312v-0.4375c-0.14844 0.17969-0.30469 0.30859-0.46875 0.39062-0.15625 0.082031-0.33594 0.125-0.53125 0.125-0.34375 0-0.60938-0.10156-0.79688-0.3125-0.17969-0.21875-0.26562-0.53125-0.26562-0.9375z"/>
  </symbol>
  <symbol id="p" overflow="visible">
   <path d="m0.5-3.9844h1.7031c0.50781 0 0.89844 0.11719 1.1719 0.34375 0.26953 0.21875 0.40625 0.53906 0.40625 0.95312 0 0.41797-0.13672 0.74219-0.40625 0.96875-0.27344 0.21875-0.66406 0.32812-1.1719 0.32812h-0.67188v1.3906h-1.0312zm1.0312 0.75v1.1094h0.5625c0.19531 0 0.34766-0.046875 0.45312-0.14062 0.11328-0.10156 0.17188-0.24219 0.17188-0.42188 0-0.17578-0.058594-0.3125-0.17188-0.40625-0.10547-0.09375-0.25781-0.14062-0.45312-0.14062z"/>
  </symbol>
  <symbol id="o" overflow="visible">
   <path d="m0.45312-2.9844h0.96875v2.9375c0 0.39453-0.10156 0.69531-0.29688 0.90625-0.1875 0.21875-0.46484 0.32812-0.82812 0.32812h-0.48438v-0.64062h0.17188c0.17578 0 0.29688-0.042969 0.35938-0.125 0.070312-0.074219 0.10938-0.23047 0.10938-0.46875zm0-1.1719h0.96875v0.78125h-0.96875z"/>
  </symbol>
 </defs>
 <g>
  <path d="m383.16 303.26 0.92188-1.8477v0.003906c2.1602-4.3242 0.40625-9.5781-3.9141-11.742-4.3242-2.1602-9.5781-0.40625-11.742 3.9141l-0.92188 1.8516c-2.1758 4.3555-5.9023 7.7422-10.441 9.4961-4.543 1.7578-9.5742 1.7578-14.117 0-4.5391-1.7539-8.2656-5.1406-10.441-9.4961l-0.92188-1.8438v-0.003906c-2.1641-4.3203-7.418-6.0742-11.742-3.9141-4.3203 2.1641-6.0742 7.418-3.9141 11.742l0.92188 1.8438 0.003906-0.003907c4.125 8.2539 11.176 14.672 19.781 18 8.6055 3.3281 18.141 3.3281 26.742 0 8.6055-3.3281 15.66-9.7461 19.785-18z"/>
  <path d="m546.82 442.05c-1.5547-11.574-6.375-22.465-13.895-31.395-7.5195-8.9336-17.43-15.539-28.566-19.047l-101.86-31.828v-13.977c26.441-13.824 46.43-37.441 55.684-65.809h5.5664c9.9062 0.027344 19.355-4.1562 25.996-11.508 6.6367-7.3477 9.8438-17.172 8.8125-27.023-1.0273-9.8516-6.1914-18.801-14.207-24.621 14.992-22.07 23.051-48.109 23.148-74.789v-2.8984 0.003906c0.023438-19.09-4.0898-37.957-12.055-55.305-0.94141-2.1523-2.7031-3.8359-4.8984-4.6758-2.1914-0.83594-4.6289-0.76172-6.7656 0.21875-2.1328 0.97656-3.7852 2.7695-4.5859 4.9766-0.80078 2.207-0.67578 4.6445 0.33594 6.7617 6.918 15.062 10.488 31.445 10.469 48.023v2.8984-0.003906c-0.078125 24.574-7.9336 48.492-22.445 68.328-1.2578-0.19922-2.5312-0.32812-3.8047-0.38672v-17.5c0-4.3516-3.2031-8.043-7.5117-8.6602l-71.992-10.281h0.003906c-29.371-4.1406-55.289-21.352-70.496-46.812-1.6602-2.7188-4.6484-4.3398-7.832-4.2461-3.1914 0.125-6.0625 1.9727-7.4922 4.8281l-10.125 20.234h-0.003907c-9.0898 18.199-25.684 31.512-45.422 36.445-3.8945 0.97656-6.6289 4.4766-6.6289 8.4922v17.5c-1.5703 0.050781-3.1367 0.21094-4.6836 0.47266l-15.516-41.051c-7.3438-19.453-8.0117-40.793-1.9023-60.668 6.1094-19.871 18.652-37.152 35.652-49.117 5.8477-4.1055 12.789-6.3594 19.93-6.4727 7.1367-0.11719 14.148 1.9141 20.121 5.8281l1.2031 0.79687c3.4531 2.2891 8.0352 1.8477 10.98-1.0625l0.98438-0.96875c22.074-21.828 52.402-33.215 83.387-31.301 30.984 1.9102 59.684 16.941 78.898 41.32 2.9844 3.8047 8.4844 4.4688 12.289 1.4844 3.8047-2.9805 4.4688-8.4805 1.4883-12.285-21.715-27.559-53.898-44.863-88.859-47.785-34.965-2.9219-69.57 8.8008-95.559 32.371-8.6445-4.4258-18.332-6.4141-28.02-5.7422-9.6875 0.66797-19.008 3.9688-26.961 9.5469-20.16 14.203-35.031 34.707-42.273 58.281-7.2422 23.578-6.4414 48.895 2.2695 71.969l15.68 41.473c-7.918 5.875-12.98 14.824-13.938 24.637-0.95312 9.8125 2.2852 19.574 8.9219 26.867 6.6367 7.2891 16.047 11.434 25.906 11.406h5.5664c9.2539 28.367 29.242 51.984 55.684 65.809v13.977l-101.86 31.828c-11.137 3.5039-21.047 10.109-28.566 19.043s-12.34 19.828-13.895 31.398l-13.105 99.301c-0.33203 2.4961 0.43359 5.0156 2.0938 6.9141 1.6602 1.8945 4.0586 2.9805 6.5781 2.9805h253.75c4.832 0 8.75-3.918 8.75-8.75s-3.918-8.75-8.75-8.75h-2.3281l19.984-34.586h-0.003906c1.2422-2.1484 1.5117-4.7227 0.74609-7.0781l-8.2031-25.281 39.023-31.223c2.8633-2.2891 3.9922-6.125 2.8281-9.6016l-11.758-35.27 56.352 17.609h0.003906c7.9531 2.5039 15.031 7.2227 20.398 13.605 5.3711 6.3789 8.8164 14.156 9.9258 22.422l11.801 89.402h-68.77l0.007812-52.5c0-4.832-3.918-8.75-8.75-8.75-4.832 0-8.75 3.918-8.75 8.75l-0.007812 52.5h-17.5c-4.832 0-8.75 3.918-8.75 8.75s3.918 8.75 8.75 8.75h113.75c2.5195 0 4.918-1.0859 6.5781-2.9805 1.6602-1.8984 2.4258-4.418 2.0938-6.9141zm-293.07-197.05v-35h192.5v35c0 1.3477-0.14844 2.6562-0.20312 3.9922-14.758 8.8398-31.641 13.508-48.844 13.508-11.102 0.035156-21.758-4.3789-29.582-12.25l-11.434-11.434c-3.418-3.4141-8.957-3.4141-12.375 0l-11.434 11.434c-7.8242 7.8711-18.48 12.285-29.582 12.25-17.203 0-34.086-4.668-48.844-13.508-0.054687-1.3359-0.20312-2.6445-0.20312-3.9922zm210 17.5h-1.4883c0.94531-5.7852 1.4453-11.637 1.4883-17.5v-17.5c6.2539 0 12.031 3.3359 15.156 8.75s3.125 12.086 0 17.5-8.9023 8.75-15.156 8.75zm-159.8-107.1 3.5195-7.043v-0.003907c18.402 23.172 45 38.395 74.297 42.523l11.367 1.625h-124.69c15.293-8.5195 27.664-21.449 35.504-37.102zm-67.703 107.1c-6.2539 0-12.031-3.3359-15.156-8.75s-3.125-12.086 0-17.5 8.9023-8.75 15.156-8.75v17.5c0.042969 5.8633 0.54297 11.715 1.4883 17.5zm21 7.8438c14.344 6.3594 29.859 9.6484 45.547 9.6562 15.746 0.042969 30.852-6.2148 41.953-17.379l5.25-5.25 5.25 5.25c11.102 11.164 26.207 17.422 41.953 17.379 15.688-0.007812 31.203-3.2969 45.551-9.6562-7.4336 27.34-26.547 50.004-52.238 61.945-25.688 11.938-55.336 11.938-81.027 0-25.688-11.941-44.805-34.605-52.234-61.945zm92.75 88.406c11.887-0.007812 23.699-1.8867 35-5.5664v8.5391l-8.3555 5.9805c-7.8125 5.457-17.113 8.3828-26.645 8.3828s-18.832-2.9258-26.645-8.3828l-8.3555-5.9805v-8.5391c11.301 3.6797 23.113 5.5586 35 5.5664zm-50.008 18.594 8.9375 36.016h0.003906c1.1641 4.6914 5.9102 7.5508 10.598 6.3867 4.6914-1.1641 7.5508-5.9102 6.3906-10.598l-5.6953-22.945c18.574 10.066 40.977 10.066 59.547 0l-29.773 119.97-15.398-62.031v0.003906c-1.1641-4.6914-5.9102-7.5508-10.598-6.3867-4.6914 1.1602-7.5508 5.9062-6.3906 10.598l21.199 85.395h-18.77l-23.09-39.969 8.8711-27.332c1.1211-3.4609-0.015625-7.2578-2.8555-9.5312l-38.988-31.188 13.816-41.453zm-129.46 67.008c1.1094-8.2656 4.5508-16.043 9.9219-22.426 5.3711-6.3828 12.449-11.102 20.402-13.605l56.352-17.609-11.758 35.273 0.003906-0.003906c-1.1602 3.4766-0.03125 7.3086 2.8281 9.6016l39.023 31.223-8.2031 25.281c-0.76562 2.3555-0.49609 4.9297 0.74609 7.0781l19.98 34.586h-54.828l0.007812-52.5c0-4.832-3.918-8.75-8.75-8.75-4.832 0-8.75 3.918-8.75 8.75l-0.007812 52.5h-68.77zm265.49-18.625-38.992 31.191c-2.8398 2.2734-3.9766 6.0703-2.8555 9.5312l8.8711 27.332-23.09 39.969h-18.77l38.82-156.41 22.203 6.9375z"/>
  <use x="70" y="576.40625" xlink:href="#z"/>
  <use x="74.011719" y="576.40625" xlink:href="#c"/>
  <use x="76.710938" y="576.40625" xlink:href="#b"/>
  <use x="80.417969" y="576.40625" xlink:href="#d"/>
  <use x="84.109375" y="576.40625" xlink:href="#a"/>
  <use x="86.722656" y="576.40625" xlink:href="#b"/>
  <use x="90.433594" y="576.40625" xlink:href="#n"/>
  <use x="96.25" y="576.40625" xlink:href="#m"/>
  <use x="100.167969" y="576.40625" xlink:href="#l"/>
  <use x="105.636719" y="576.40625" xlink:href="#k"/>
  <use x="109.574219" y="576.40625" xlink:href="#a"/>
  <use x="112.1875" y="576.40625" xlink:href="#d"/>
  <use x="115.878906" y="576.40625" xlink:href="#c"/>
  <use x="118.574219" y="576.40625" xlink:href="#a"/>
  <use x="123.09375" y="576.40625" xlink:href="#y"/>
  <use x="127.535156" y="576.40625" xlink:href="#j"/>
  <use x="133.351562" y="576.40625" xlink:href="#x"/>
  <use x="137.839844" y="576.40625" xlink:href="#c"/>
  <use x="140.539062" y="576.40625" xlink:href="#d"/>
  <use x="144.230469" y="576.40625" xlink:href="#j"/>
  <use x="148.144531" y="576.40625" xlink:href="#i"/>
  <use x="152.035156" y="576.40625" xlink:href="#h"/>
  <use x="153.910156" y="576.40625" xlink:href="#g"/>
  <use x="159.058594" y="576.40625" xlink:href="#w"/>
  <use x="163.597656" y="576.40625" xlink:href="#b"/>
  <use x="167.304688" y="576.40625" xlink:href="#v"/>
  <use x="170.558594" y="576.40625" xlink:href="#h"/>
  <use x="172.433594" y="576.40625" xlink:href="#u"/>
  <use x="176.347656" y="576.40625" xlink:href="#f"/>
  <use x="70" y="581.875" xlink:href="#t"/>
  <use x="72.378906" y="581.875" xlink:href="#c"/>
  <use x="75.078125" y="581.875" xlink:href="#e"/>
  <use x="78.832031" y="581.875" xlink:href="#s"/>
  <use x="86.4375" y="581.875" xlink:href="#a"/>
  <use x="89.050781" y="581.875" xlink:href="#i"/>
  <use x="92.941406" y="581.875" xlink:href="#b"/>
  <use x="98.554688" y="581.875" xlink:href="#r"/>
  <use x="103.132812" y="581.875" xlink:href="#e"/>
  <use x="106.890625" y="581.875" xlink:href="#q"/>
  <use x="110.785156" y="581.875" xlink:href="#f"/>
  <use x="116.582031" y="581.875" xlink:href="#p"/>
  <use x="120.589844" y="581.875" xlink:href="#c"/>
  <use x="123.285156" y="581.875" xlink:href="#e"/>
  <use x="127.042969" y="581.875" xlink:href="#o"/>
  <use x="128.917969" y="581.875" xlink:href="#b"/>
  <use x="132.625" y="581.875" xlink:href="#g"/>
  <use x="135.867188" y="581.875" xlink:href="#a"/>
 </g>
</svg>
