<?xml version="1.0" encoding="utf-8"?>
<!-- Generator: Adobe Illustrator 28.3.0, SVG Export Plug-In . SVG Version: 6.00 Build 0)  -->
<svg version="1.1" id="Layer_1" xmlns="http://www.w3.org/2000/svg" xmlns:xlink="http://www.w3.org/1999/xlink" x="0px" y="0px"
	 viewBox="0 0 802 200" style="enable-background:new 0 0 802 200;" xml:space="preserve">
<style type="text/css">
	.st0{fill:#733C97;}
	.st1{fill:#00ABBD;}
</style>
<g>
	<g>
		<g>
			<g>
				<path class="st0" d="M57.1,65c15.6-20,43.1-26,65.6-14.1c25.5,13.4,35.5,45.2,22,70.7s-45.2,35.5-70.7,22
					c-23.4-12.3-34-40.1-24.7-64.7l-5.6-2.1c-10.3,27.4,1.5,58.5,27.6,72.2c28.5,15,63.8,4,78.8-24.5c14.9-28.5,4-63.8-24.5-78.8
					C100.5,32.4,69.8,39,52.4,61.4L57.1,65z"/>
			</g>
			<g>
				<path class="st1" d="M168.4,84.7c-3.3-18.2-13.3-34.2-28.3-45.1C124.7,28.5,105.8,24,87.2,27.1c-18.7,3-35.1,13.2-46.2,28.6
					s-15.6,34.2-12.5,52.9c2.9,18.7,13.1,35.2,28.5,46.3c21.7,15.6,49.9,17.8,73.8,5.8l-2.7-5.4c-21.8,11.1-47.7,9-67.4-5.2
					c-14.1-10.2-23.4-25.2-26.2-42.4s1.2-34.3,11.4-48.5S70.9,35.8,88.1,33c17.2-2.8,34.3,1.2,48.5,11.4c13.8,9.9,22.9,24.5,26,41.2
					L168.4,84.7z"/>
			</g>
			<g>
				<path class="st0" d="M148.4,30.2c-3.5-2.6-7.2-5-11.2-7c-19.8-10.4-42.4-12.4-63.7-5.8c-21.2,6.6-38.7,21.1-49,40.9
					c-10.4,19.8-12.4,42.4-5.8,63.7s21.1,38.7,40.9,49.1c11.1,5.9,23,9,35.5,9.5l0.2-6c-11.5-0.5-22.6-3.4-32.9-8.8
					c-18.3-9.6-31.9-25.9-38-45.6c-6.2-19.8-4.3-40.8,5.4-59.1c9.6-18.3,25.9-31.9,45.6-38c19.8-6.2,40.8-4.3,59.1,5.4
					c3.6,1.9,7.1,4.1,10.4,6.6L148.4,30.2z"/>
			</g>
			<g>
				<path class="st0" d="M193.7,95.5C193,60.7,173.6,29,142.7,12.8C96.2-11.6,38.6,6.4,14.2,52.8l5.3,2.8
					C42.3,12.2,96.4-4.7,139.9,18.1C168.7,33.3,187,63,187.6,95.6L193.7,95.5z"/>
			</g>
			<g>
				<path class="st1" d="M1,114.8c11.6,56,66.8,92.3,122.8,80.6l-1.2-5.9c-52.9,11-104.7-23.2-115.7-75.9L1,114.8z"/>
			</g>
		</g>
		<g>
			<g>
				<path class="st0" d="M190.1,122.7c-1.5-1-3.3-2.1-5.1-2.1c-2.9,0-4.6,1.7-4.6,4c0,2.1,1.8,3.6,5.5,6.4c4.1,2.9,6.4,5.6,6.4,9.4
					c0,4.6-4.4,7.7-9.1,7.7c-2.8,0-6.2-1-8.2-3l1.8-2.5c1.7,1.2,3.6,2.6,6.4,2.6c2.9,0,5.1-1.6,5.1-4.9c0-3.7-4.4-6.1-6.8-7.9
					c-2.5-1.9-5.2-3.7-5.2-7.9c0-4,3.8-6.9,8.5-6.9c3,0,5.6,1.1,7.2,2.9L190.1,122.7z"/>
			</g>
			<g>
				<path class="st0" d="M212.5,146c-2,1.5-4.5,2.1-6.3,2.1c-9.9,0-11.2-8.1-11.2-11.1c0-5.3,3.5-11,11.4-11c2.1,0,4.1,0.6,5.6,1.7
					l-1.2,2.1c-1.2-0.6-2.8-1.1-4.3-1.1c-3.4,0-7.3,2.3-7.3,8c0,4.4,2.3,8.5,7.3,8.5c1.8,0,3.5-0.5,5.1-1.5L212.5,146z"/>
			</g>
			<g>
				<path class="st0" d="M214,136.8c0-6.8,5.1-10.7,10.4-10.7c5.3,0,10.4,4,10.4,10.7c0,6.6-4.2,11.3-10.4,11.3
					C218.1,148.1,214,143.4,214,136.8z M218.1,136.8c0,4,1.4,8.6,6.2,8.6c5,0,6.3-4.6,6.3-8.6c0-3.7-1.6-8-6.3-8
					C219.6,128.8,218.1,133.1,218.1,136.8z"/>
			</g>
			<g>
				<path class="st0" d="M242.9,126.6h5.5v2.1h-5.5v11.9c0,2.9,0.6,4.7,2.9,4.7c1.4,0,2.1-0.3,2.9-0.7l0.9,2.1
					c-1.4,0.8-2.8,1.4-4.3,1.4c-4.2,0-6.2-2.5-6.2-6.8v-12.5h-2.9v-2.3h2.9v-5.1l3.8-1.2v6.3H242.9z"/>
			</g>
			<g>
				<path class="st0" d="M256.1,126.6h5.5v2.1h-5.5v11.9c0,2.9,0.6,4.7,2.9,4.7c1.4,0,2.1-0.3,2.9-0.7l0.9,2.1
					c-1.4,0.8-2.8,1.4-4.3,1.4c-4.2,0-6.2-2.5-6.2-6.8v-12.5h-3v-2.3h2.9v-5.1l3.7-1.2v6.3H256.1z"/>
			</g>
			<g>
				<path class="st0" d="M264.3,119.7c0-1,0.9-2.3,2.4-2.3c1.5,0,2.4,1.1,2.4,2.3s-0.6,2.6-2.4,2.6
					C264.7,122.3,264.3,120.8,264.3,119.7z M268.6,126.6v21h-3.7v-21H268.6z"/>
			</g>
			<g>
				<path class="st0" d="M283.4,130c-1.5-1-2.7-1.4-3.8-1.4c-1.4,0-3,0.7-3,2.4c0,1.8,1.9,2.7,4.3,4.5c2.7,2,4.4,3.8,4.4,6.8
					c0,3.5-3.5,6-7.3,6c-2.4,0-5.1-1-6.4-2.6l1.8-2.1c1.2,1.1,2.8,2.1,4.5,2.1c1.8,0,3.6-0.9,3.6-2.9c0-2.5-2.1-3.5-4.2-5
					c-2.4-1.7-4.5-3.2-4.5-6c0-3.3,3.3-5.4,7-5.4c2,0,4.1,0.8,5.2,1.9L283.4,130z"/>
			</g>
			<g>
				<path class="st0" d="M292.3,129.3c2-2.1,5-3.2,7.2-3.2c4.9,0,7.5,2.7,7.5,8v13.6h-3.7v-12.8c0-4-1.7-6-5.1-6
					c-2.9,0-5.8,2-5.8,6.1v12.7h-3.8v-30.9h3.7V129.3z"/>
			</g>
			<g>
				<path class="st0" d="M337.7,121.1h-10.4v11.2h10.3v2.9h-10.3v12.3h-4.1v-29.5h14.5L337.7,121.1L337.7,121.1z"/>
			</g>
			<g>
				<path class="st0" d="M355.8,145.2c-2.1,1.8-4.1,2.9-6.8,2.9c-4.9,0-7.5-2.7-7.5-8v-13.6h3.8v12.8c0,4,1.7,6.1,5.1,6.1
					c2.9,0,5.3-2.4,5.3-6.4v-12.4h3.7v21h-3.7V145.2z"/>
			</g>
			<g>
				<path class="st0" d="M368.2,129.3c2-2.1,5-3.2,7.2-3.2c4.9,0,7.5,2.7,7.5,8v13.6h-3.7v-12.8c0-4-1.7-6-5.1-6
					c-2.9,0-5.8,2-5.8,6.1v12.7h-3.8v-21.1h3.7V129.3z"/>
			</g>
			<g>
				<path class="st0" d="M402.9,144.3L402.9,144.3c-1.6,2-3.8,3.8-7.2,3.8c-5.6,0-9.3-4.5-9.3-11.3c0-5.4,4-10.7,9.7-10.7
					c2.8,0,5.4,1.1,6.8,3.2h0.1v-12.5h3.7v30.9H403v-3.4H402.9z M402.9,136.5c0-4-2.1-7.7-6.2-7.7c-4.4,0-6.2,3.5-6.2,7.9
					c0,4.5,1.9,8.7,6,8.7C400.9,145.4,402.9,141.1,402.9,136.5z"/>
			</g>
			<g>
				<path class="st0" d="M411.1,119.7c0-1,0.9-2.3,2.4-2.3c1.5,0,2.4,1.1,2.4,2.3s-0.6,2.6-2.4,2.6
					C411.6,122.3,411.1,120.8,411.1,119.7z M415.4,126.6v21h-3.8v-21H415.4z"/>
			</g>
			<g>
				<path class="st0" d="M424.1,129.3c2-2.1,5-3.2,7.2-3.2c4.9,0,7.5,2.7,7.5,8v13.6h-3.8v-12.8c0-4-1.7-6-5.1-6
					c-2.9,0-5.8,2-5.8,6.1v12.7h-3.8v-21.1h3.7v2.7H424.1z"/>
			</g>
			<g>
				<path class="st0" d="M462.6,146.9c0,8-5,11.3-10.7,11.3c-3.2,0-6.2-0.6-8.7-2.1l1-2.5c2.6,1.5,5,1.9,7.6,1.9c4.3,0,7-2.8,7-8.2
					v-2.8h-0.1c-1.5,2-3.7,3.8-7,3.8c-5.8,0-9.4-4.5-9.4-11.3c0-5.4,4.1-10.7,10.1-10.7c2.5,0,5.2,1.2,6.4,3.4h0.1v-3h3.8v20.3
					H462.6z M458.8,136.5c0-4-2.1-7.7-6.2-7.7c-4.4,0-6.2,3.5-6.2,7.9c0,4.5,1.9,8.7,6,8.7C456.9,145.4,458.8,141.1,458.8,136.5z"/>
			</g>
			<g>
				<path class="st0" d="M500.9,123.2c-1.4-1.1-4.5-2.6-7.7-2.6c-7.2,0-11.5,5.2-11.5,12.1c0,7.5,5.1,12.4,11.5,12.4
					c3.2,0,5.8-1,7.5-2.1l1.6,2.5c-2,1.4-5.4,2.7-9.3,2.7c-10.5,0-15.8-7.2-15.8-15.4c0-7.5,5.8-15.1,16.4-15.1c4.2,0,7.1,1.5,9,2.9
					L500.9,123.2z"/>
			</g>
			<g>
				<path class="st0" d="M504.3,136.8c0-6.8,5.1-10.7,10.4-10.7c5.3,0,10.4,4,10.4,10.7c0,6.6-4.2,11.3-10.4,11.3
					C508.5,148.1,504.3,143.4,504.3,136.8z M508.4,136.8c0,4,1.4,8.6,6.2,8.6c5,0,6.3-4.6,6.3-8.6c0-3.7-1.6-8-6.3-8
					C509.9,128.8,508.4,133.1,508.4,136.8z"/>
			</g>
			<g>
				<path class="st0" d="M542.7,145.2c-2.1,1.8-4.1,2.9-6.8,2.9c-4.9,0-7.5-2.7-7.5-8v-13.6h3.7v12.8c0,4,1.7,6.1,5.1,6.1
					c2.9,0,5.3-2.4,5.3-6.4v-12.4h3.8v21h-3.7L542.7,145.2L542.7,145.2z"/>
			</g>
			<g>
				<path class="st0" d="M555.1,129.3c1.9-2.1,5-3.2,7.2-3.2c4.9,0,7.5,2.7,7.5,8v13.6h-3.7v-12.8c0-4-1.7-6-5.1-6
					c-2.9,0-5.8,2-5.8,6.1v12.7h-3.8v-21.1h3.7V129.3z"/>
			</g>
			<g>
				<path class="st0" d="M590.8,146c-2,1.5-4.5,2.1-6.3,2.1c-9.9,0-11.2-8.1-11.2-11.1c0-5.3,3.5-11,11.4-11c2.1,0,4.1,0.6,5.6,1.7
					l-1.2,2.1c-1.2-0.6-2.8-1.1-4.3-1.1c-3.5,0-7.3,2.3-7.3,8c0,4.4,2.3,8.5,7.3,8.5c1.8,0,3.5-0.5,5.1-1.5L590.8,146z"/>
			</g>
			<g>
				<path class="st0" d="M593.2,119.7c0-1,0.9-2.3,2.4-2.3c1.6,0,2.4,1.1,2.4,2.3s-0.6,2.6-2.4,2.6S593.2,120.8,593.2,119.7z
					 M597.5,126.6v21h-3.7v-21H597.5z"/>
			</g>
			<g>
				<path class="st0" d="M602.4,147.7v-30.9h3.8v30.9H602.4z"/>
			</g>
		</g>
		<g>
			<path class="st1" d="M716.1,188.9v-3h9.3v3H716.1z"/>
			<g>
				<path class="st1" d="M197,175c-1.2-1-4.2-2.4-7.1-2.4c-6.8,0-10.7,4.9-10.7,11.2c0,6.9,4.7,11.5,10.7,11.5c2.9,0,5.3-0.9,6.9-2
					l1.5,2.3c-1.8,1.2-5.1,2.5-8.6,2.5c-9.7,0-14.7-6.7-14.7-14.1c0-6.9,5.3-14,15.1-14c4,0,6.7,1.4,8.4,2.7L197,175z"/>
				<path class="st1" d="M201.3,187.7c0-6.3,4.6-9.9,9.6-9.9c4.9,0,9.6,3.6,9.6,9.9c0,6-3.8,10.4-9.6,10.4
					C205.1,198.1,201.3,193.7,201.3,187.7z M205,187.7c0,3.6,1.2,7.9,5.8,7.9c4.6,0,5.9-4.3,5.9-7.9c0-3.5-1.5-7.5-5.9-7.5
					C206.4,180.2,205,184.2,205,187.7z"/>
				<path class="st1" d="M228.2,180.6c1.6-1.9,4-2.9,6.1-2.9c3,0,5,1.2,6.2,2.9c1.9-1.7,4.5-2.9,6.7-2.9c4.3,0,6.4,2.8,6.6,6.9v13
					h-3.5v-11.6c0-2.8-0.7-5.6-4.3-5.6c-2.9,0-5,1.6-5,5.5v11.7h-3.5v-11.6c0-3.6-1.6-5.6-4.4-5.6c-2.9,0-4.9,1.9-4.9,5.6v11.5h-3.5
					V178h3.5V180.6z"/>
				<path class="st1" d="M263,180.6c1.8-1.9,4.6-2.9,6.7-2.9c4.5,0,6.9,2.5,6.9,7.3v12.5h-3.5v-11.7c0-3.6-1.6-5.5-4.7-5.5
					c-2.7,0-5.3,1.9-5.3,5.6v11.7h-3.5V169h3.5V180.6z"/>
				<path class="st1" d="M291.4,195.5c-1.4,1.4-3,2.6-4.9,2.6c-3.3,0-5.5-2.4-5.5-6c0-3.4,2.8-5.5,6.9-6.8l4.7-1.5
					c-0.1-2.4-2-3.8-3.8-3.8c-2.3,0-3.7,0.9-5.1,2.1l-1.4-1.8c1.9-1.9,4-2.6,6.7-2.6c2.9,0,7.2,0.9,7.2,6.7v8.6
					c0,1.5,0.2,3.4,0.9,4.7h-3.8c-0.5-0.8-0.6-2-0.6-3.3L291.4,195.5z M289.4,187.1c-3,0.9-4.6,2.4-4.6,4.9c0,2,1.4,3.3,2.8,3.3
					c2.5,0,5.6-3,5.2-9.1L289.4,187.1z"/>
				<path class="st1" d="M301.3,171.7c0-1,0.8-2,2.3-2c1.4,0,2.3,1.1,2.3,2c0,1-0.5,2.4-2.3,2.4
					C301.8,174.1,301.3,172.8,301.3,171.7z M305.3,178.2v19.4h-3.5v-19.4H305.3z"/>
				<path class="st1" d="M314.4,180.6l1.4-1.5c0.8-0.8,2.1-1.4,2.9-1.4c0.9,0,2.1,0.7,3.3,1.9l-1.6,2.3c-0.8-0.5-1.7-0.8-2.6-0.8
					c-1.8,0-3.3,1.8-3.3,6.1v10.5H311v-19.4h3.4L314.4,180.6L314.4,180.6z"/>
				<path class="st1" d="M324.6,197.6V169h3.5v28.6H324.6z"/>
				<path class="st1" d="M336.1,188.1c0,3.8,2.7,7.5,6.6,7.5c1.8,0,4-0.7,5.3-1.7l1,1.9c-2,1.5-4.4,2.3-6.4,2.3
					c-6.1,0-10.1-3.7-10.1-10.6c0-6.8,4.9-9.8,9.3-9.8c5.9,0,7.9,5.3,7.6,10.4h-13.2V188.1z M346.1,185.8c0-3-1.2-5.6-4.4-5.6
					c-3.7,0-5.2,3.2-5.3,5.6H346.1z"/>
				<path class="st1" d="M644.3,180.6c1.8-1.9,4.6-2.9,6.7-2.9c4.5,0,6.9,2.5,6.9,7.3v12.5h-3.5v-11.7c0-3.6-1.6-5.5-4.7-5.5
					c-2.7,0-5.3,1.9-5.3,5.6v11.7h-3.5v-19.4h3.5V180.6z"/>
				<path class="st1" d="M672.7,195.5c-1.4,1.4-3,2.6-4.9,2.6c-3.3,0-5.5-2.4-5.5-6c0-3.4,2.9-5.5,6.9-6.8l4.7-1.5
					c-0.1-2.4-2-3.8-3.8-3.8c-2.3,0-3.7,0.9-5.1,2.1l-1.4-1.8c1.9-1.9,4-2.6,6.7-2.6c2.9,0,7.2,0.9,7.2,6.7v8.6
					c0,1.5,0.2,3.4,0.9,4.7h-3.8c-0.5-0.8-0.6-2-0.6-3.3L672.7,195.5z M670.7,187.1c-3,0.9-4.6,2.4-4.6,4.9c0,2,1.4,3.3,2.8,3.3
					c2.5,0,5.6-3,5.2-9.1L670.7,187.1z"/>
				<path class="st1" d="M697.8,180.6c1.8-1.9,4.6-2.9,6.7-2.9c4.5,0,6.9,2.5,6.9,7.3v12.5h-3.5v-11.7c0-3.6-1.6-5.5-4.7-5.5
					c-2.7,0-5.3,1.9-5.3,5.6v11.7h-3.5V169h3.5V180.6z"/>
				<path class="st1" d="M740.9,170.4l10.2,27.2h-4.4l-2.8-8h-10.4l-2.9,8h-3.6l11.1-27.2H740.9z M742.9,186.9
					c-1.4-3.7-2.7-7.6-4.1-12.4h-0.1c-1.4,4.9-2.8,8.7-4.3,12.4H742.9z"/>
				<path class="st1" d="M753.8,197.6V169h3.5v28.6H753.8z"/>
				<path class="st1" d="M762.9,169h3.5v12.2h0.1c1.5-2.4,4.2-3.5,6.3-3.5c7.6,0,8.8,6.8,8.8,9.6c0,5.9-3.5,10.7-9.3,10.7
					c-2.5,0-4.5-1.1-6-3h-0.1v2.6h-3.5V169H762.9z M778,187.3c0-3.5-1.8-7.1-5.4-7.1c-4,0-6.1,3-6.1,8.1c0,3.7,1.7,7.3,6.1,7.3
					C776.7,195.6,778,190.8,778,187.3z"/>
				<path class="st1" d="M795.2,195.5c-1.4,1.4-3,2.6-4.9,2.6c-3.3,0-5.5-2.4-5.5-6c0-3.4,2.9-5.5,6.9-6.8l4.7-1.5
					c-0.1-2.4-2-3.8-3.8-3.8c-2.3,0-3.7,0.9-5.1,2.1l-1.4-1.8c1.9-1.9,4-2.6,6.7-2.6c2.9,0,7.2,0.9,7.2,6.7v8.6
					c0,1.5,0.2,3.4,0.9,4.7h-3.8c-0.5-0.8-0.6-2-0.6-3.3L795.2,195.5z M793.1,187.1c-3,0.9-4.6,2.4-4.6,4.9c0,2,1.4,3.3,2.8,3.3
					c2.5,0,5.6-3,5.2-9.1L793.1,187.1z"/>
				<path class="st1" d="M393,197.4h-3.7v-22.1h-0.1c-1.1,3.2-7.2,15.2-11,22.1h-1.5c-3.4-7-9-18.6-10.1-22.1h-0.1v22.1h-3.2v-27.2
					h4.1c3.5,7.2,7,14.5,10.5,22.1c3.8-7.7,7.7-14.9,11.5-22.1h3.5V197.4z"/>
				<path class="st1" d="M408.2,195.2c-1.4,1.4-3,2.6-4.9,2.6c-3.3,0-5.5-2.4-5.5-6c0-3.4,2.8-5.5,6.9-6.8l4.7-1.5
					c-0.1-2.4-2-3.8-3.8-3.8c-2.3,0-3.7,0.9-5.1,2.1l-1.4-1.7c1.9-1.9,4-2.6,6.7-2.6c2.9,0,7.2,0.9,7.2,6.7v8.6
					c0,1.5,0.2,3.4,0.9,4.7h-3.8c-0.5-0.8-0.6-2-0.6-3.3L408.2,195.2z M406.1,187c-3,0.9-4.6,2.4-4.6,4.9c0,2,1.4,3.3,2.8,3.3
					c2.5,0,5.6-3,5.2-9.1L406.1,187z"/>
				<path class="st1" d="M417.3,187.4c0-6.3,4.6-9.9,9.6-9.9c4.9,0,9.6,3.6,9.6,9.9c0,6-3.8,10.4-9.6,10.4
					C421.2,197.8,417.3,193.4,417.3,187.4z M421,187.4c0,3.6,1.2,7.9,5.8,7.9c4.6,0,5.9-4.3,5.9-7.9c0-3.5-1.5-7.5-5.9-7.5
					C422.5,180,421,183.9,421,187.4z"/>
				<path class="st1" d="M440.5,171.5c0-1,0.8-2,2.3-2c1.4,0,2.3,1.1,2.3,2c0,1-0.6,2.4-2.3,2.4
					C440.9,173.9,440.5,172.5,440.5,171.5z M444.4,178v19.4h-3.5V178H444.4z"/>
				<path class="st1" d="M453.6,180.3c1.8-1.9,4.6-2.8,6.7-2.8c4.5,0,6.9,2.5,6.9,7.3v12.5h-3.5v-11.7c0-3.6-1.6-5.5-4.7-5.5
					c-2.7,0-5.3,1.9-5.3,5.6v11.7h-3.5v-19.4h3.5L453.6,180.3L453.6,180.3z"/>
				<path class="st1" d="M475.1,187.9c0,3.8,2.7,7.5,6.6,7.5c1.8,0,4-0.7,5.3-1.7l1,1.9c-2,1.5-4.4,2.3-6.4,2.3
					c-6.1,0-10.1-3.7-10.1-10.6c0-6.8,4.9-9.8,9.3-9.8c5.9,0,7.9,5.3,7.5,10.4h-13.1V187.9z M485.1,185.5c0-3-1.2-5.6-4.3-5.6
					c-3.7,0-5.2,3.2-5.3,5.6H485.1z"/>
				<path class="st1" d="M501.7,195.2c-1.4,1.4-3,2.6-4.9,2.6c-3.3,0-5.5-2.4-5.5-6c0-3.4,2.8-5.5,6.9-6.8l4.7-1.5
					c-0.1-2.4-2-3.8-3.8-3.8c-2.3,0-3.7,0.9-5.1,2.1l-1.4-1.7c1.9-1.9,4-2.6,6.7-2.6c2.9,0,7.2,0.9,7.2,6.7v8.6
					c0,1.5,0.2,3.4,0.9,4.7h-4c-0.5-0.8-0.6-2-0.6-3.3L501.7,195.2z M499.5,187c-3,0.9-4.6,2.4-4.6,4.9c0,2,1.4,3.3,2.8,3.3
					c2.5,0,5.6-3,5.2-9.1L499.5,187z"/>
				<path class="st1" d="M527,195.8c-1.9,1.4-4.2,2-5.9,2c-9.3,0-10.4-7.6-10.4-10.3c0-4.9,3.3-10.2,10.5-10.2c2,0,3.7,0.5,5.2,1.6
					l-1.1,2c-1.1-0.6-2.6-1-4-1c-3.2,0-6.8,2.1-6.8,7.3c0,4.1,2,7.9,6.8,7.9c1.7,0,3.3-0.5,4.7-1.4L527,195.8z"/>
				<path class="st1" d="M534.2,180.3c1.8-1.9,4.6-2.8,6.7-2.8c4.5,0,6.9,2.5,6.9,7.3v12.5h-3.5v-11.7c0-3.6-1.6-5.5-4.7-5.5
					c-2.7,0-5.3,1.9-5.3,5.6v11.7h-3.5v-28.6h3.5V180.3z"/>
				<path class="st1" d="M562.6,195.2c-1.4,1.4-3,2.6-4.9,2.6c-3.3,0-5.5-2.4-5.5-6c0-3.4,2.8-5.5,6.9-6.8l4.7-1.5
					c-0.1-2.4-1.9-3.8-3.8-3.8c-2.3,0-3.7,0.9-5.1,2.1l-1.4-1.7c1.9-1.9,4-2.6,6.7-2.6c2.9,0,7.2,0.9,7.2,6.7v8.6
					c0,1.5,0.2,3.4,0.9,4.7h-3.8c-0.5-0.8-0.6-2-0.6-3.3L562.6,195.2z M560.5,187c-3,0.9-4.6,2.4-4.6,4.9c0,2,1.4,3.3,2.8,3.3
					c2.5,0,5.6-3,5.2-9.1L560.5,187z"/>
				<path class="st1" d="M572.5,171.5c0-1,0.8-2,2.3-2c1.4,0,2.3,1.1,2.3,2c0,1-0.5,2.4-2.3,2.4C573,173.9,572.5,172.5,572.5,171.5z
					 M576.5,178v19.4H573V178H576.5z"/>
				<path class="st1" d="M596.2,194.3L596.2,194.3c-1.5,1.9-3.5,3.5-6.7,3.5c-5.2,0-8.6-4.2-8.6-10.4c0-5.1,3.6-9.9,9-9.9
					c2.6,0,5,1,6.2,2.8h0.1v-11.5h3.5v28.6h-3.5v-3H596.2z M596.2,187c0-3.6-2-7.1-5.8-7.1c-4.1,0-5.8,3.2-5.8,7.3
					c0,4.2,1.8,8.1,5.4,8.1C594.4,195.4,596.2,191.4,596.2,187z"/>
				<path class="st1" d="M608.8,180.3c1.8-1.9,4.6-2.8,6.7-2.8c4.5,0,6.9,2.5,6.9,7.3v12.5h-3.5v-11.7c0-3.6-1.6-5.5-4.7-5.5
					c-2.7,0-5.3,1.9-5.3,5.6v11.7h-3.5v-28.6h3.5V180.3z"/>
			</g>
		</g>
	</g>
</g>
</svg>
